<svg class="pg-logo__img" fill="white" width="320" height="100" viewBox="0 0 160 50" xmlns="http://www.w3.org/2000/svg" style="width: auto;"><g xmlns="http://www.w3.org/2000/svg" stroke="null" id="svg_23"><path stroke="null" id="svg_1" fill="#6bb5d3" d="m0.0196,25.34766s-0.89309,-10.84478 9.37844,-18.43704c4.25289,2.67211 11.17074,6.84019 11.17074,6.84019l-20.54918,11.59685z"></path><path stroke="null" id="svg_2" fill="#6bb5d3" d="m0.0196,25.34766s-0.89309,-10.84478 9.37844,-18.43704c4.25289,2.67211 11.17074,6.84019 11.17074,6.84019l-20.54918,11.59685z"></path><path stroke="null" id="svg_3" fill="#6bb5d3" d="m10.6314,6.14833l20.11695,12.28148l0,-13.52506s-9.48471,-5.02234 -20.11695,1.24358z"></path><path stroke="null" id="svg_4" fill="#0097cd" d="m32.08797,5.54953l0,23.9233l11.67451,-6.48561s-0.53136,-11.63262 -11.67451,-17.43768z"></path><path stroke="null" id="svg_5" fill="#0097cd" d="m23.11418,35.98092l11.3557,6.97507s10.26846,-6.7983 9.33246,-18.53718"></path><path stroke="null" id="svg_6" fill="#00739e" d="m12.88557,31.38264l0,13.52915s9.79228,5.17153 20.3346,-1.20884c-2.40439,-1.47451 -20.3346,-12.32031 -20.3346,-12.32031z"></path><path stroke="null" id="svg_7" fill="#00739e" d="m11.48157,44.14644l0,-23.73221l-11.48138,6.37934s0.65704,11.74195 11.48138,17.35287z"></path><path stroke="null" id="svg_8" fill="#00739e" d="m21.81645,14.54478l-8.93087,5.1889l0,10.25007l8.93087,5.16744l8.9319,-5.08263l0,-10.33488l-8.9319,-5.1889zm6.52853,14.16269l-6.52853,3.80635l-6.57043,-3.76343l0,-7.63416l6.57043,-3.80635l6.52853,3.80635l0,7.59124z"></path><polygon stroke="null" id="svg_9" fill="#00739e" points="12.885575294494629,19.733678817749023 21.816444396972656,14.544778823852539 30.748342514038086,19.733678817749023 28.344980239868164,21.11622428894043 21.816444396972656,17.308853149414062 15.246017456054688,21.11622428894043 12.885575294494629,19.733678817749023 "></polygon><polygon stroke="null" id="svg_10" fill="#00739e" points="12.885575294494629,29.98374366760254 12.885575294494629,19.733678817749023 15.246017456054688,21.11622428894043 15.246017456054688,28.750385284423828 21.816444396972656,32.51382064819336 21.816444396972656,35.15119171142578 12.885575294494629,29.98374366760254 "></polygon><polygon stroke="null" id="svg_11" fill="#6bb5d3" points="21.816444396972656,17.308853149414062 15.246017456054688,21.11622428894043 12.885575294494629,19.733678817749023 21.816444396972656,14.544778823852539 30.748342514038086,19.733678817749023 28.344980239868164,21.11622428894043 21.816444396972656,17.308853149414062 "></polygon><polygon stroke="null" id="svg_12" fill="#0097cd" points="28.344980239868164,21.11622428894043 30.748342514038086,19.733678817749023 30.748342514038086,30.06855583190918 21.816444396972656,35.15119171142578 21.816444396972656,32.51382064819336 28.344980239868164,28.707468032836914 28.344980239868164,21.11622428894043 "></polygon><path stroke="null" id="svg_13" fill="var(--primary-text-color)" d="m24.1023,22.67862a2.25418,2.25418 0 1 0 -3.16259,2.06207l0,0l-0.90944,4.58193l3.70008,0l-1.00447,-4.56864a2.25418,2.25418 0 0 0 1.37642,-2.07536z"></path><path stroke="null" id="svg_14" fill="var(--primary-text-color)" d="m63.68119,30.12067a6.96792,6.96792 0 0 0 3.52841,0.99323c2.00996,0 3.18405,-1.06067 3.18405,-2.59649c0,-1.4224 -0.81747,-2.23578 -2.8683,-3.02669c-2.48409,-0.8798 -4.01991,-2.16732 -4.01991,-4.31216c0,-2.37169 1.965,-4.13334 4.92322,-4.13334c1.5583,0 2.68744,0.36173 3.36492,0.74594l-0.54157,1.60327a6.0687,6.0687 0 0 0 -2.89078,-0.72244c-2.0774,0 -2.8683,1.24153 -2.8683,2.28074c0,1.4224 0.92579,2.12236 3.02669,2.93472c2.57401,0.99425 3.88299,2.23578 3.88299,4.47157c0,2.35023 -1.73713,4.4031 -5.32991,4.4031c-1.46736,0 -3.06552,-0.45165 -3.88299,-0.99323l0.4915,-1.64823z"></path><path stroke="null" id="svg_15" fill="var(--primary-text-color)" d="m82.76302,29.89485c0,0.94827 0.04496,1.87405 0.18087,2.61897l-1.80661,0l-0.15839,-1.37744l-0.06744,0c-0.6131,0.85834 -1.78413,1.62575 -3.34244,1.62575c-2.21228,0 -3.34141,-1.55728 -3.34141,-3.13807c0,-2.64248 2.35023,-4.08736 6.57145,-4.06488l0,-0.22583c0,-0.90331 -0.24831,-2.52905 -2.48409,-2.52905a5.44947,5.44947 0 0 0 -2.84582,0.81747l-0.45165,-1.30898c0.90331,-0.58756 2.2133,-0.97177 3.59074,-0.97177c3.34244,0 4.1548,2.28074 4.1548,4.47157l0,4.08225zm-1.91901,-2.96333c-2.16834,-0.04496 -4.62893,0.33823 -4.62893,2.46161c0,1.2865 0.85732,1.89653 1.87405,1.89653c1.4224,0 2.32571,-0.90331 2.64145,-1.82909a2.05492,2.05492 0 0 0 0.11342,-0.63252l0,-1.89653z"></path><path stroke="null" id="svg_16" fill="var(--primary-text-color)" d="m86.17289,32.51382l0,-9.41625l-1.53276,0l0,-1.51334l1.53276,0l0,-0.52216c0,-1.53276 0.33925,-2.93574 1.26504,-3.81657c0.74492,-0.72244 1.73713,-1.01571 2.66496,-1.01571a4.61871,4.61871 0 0 1 1.69319,0.31575l-0.27079,1.53276a2.96333,2.96333 0 0 0 -1.26504,-0.24831c-1.69319,0 -2.12236,1.48984 -2.12236,3.16157l0,0.58654l2.64248,0l0,1.51334l-2.64248,0l0,9.41625l-1.965,0.00613z"></path><path stroke="null" id="svg_17" fill="var(--primary-text-color)" d="m93.37686,27.41076c0.04598,2.68744 1.76165,3.79409 3.74913,3.79409c1.4224,0 2.28074,-0.24831 3.02567,-0.56508l0.33925,1.4224c-0.69996,0.31677 -1.89756,0.69996 -3.6357,0.69996c-3.36492,0 -5.37487,-2.23476 -5.37487,-5.53224s1.94149,-5.89397 5.12657,-5.89397c3.56724,0 4.51653,3.13909 4.51653,5.14905a7.48191,7.48191 0 0 1 -0.06846,0.92579l-7.6781,0zm5.82448,-1.4224c0.02248,-1.26504 -0.51909,-3.22901 -2.75897,-3.22901c-2.00996,0 -2.89078,1.85157 -3.04815,3.22901l5.80711,0z"></path><path stroke="null" id="svg_18" fill="var(--custom-accent-dark)" d="m113.06259,19l-4.31318,0l0,13.79483l-3.4998,0l0,-13.79483l-4.31318,0l0,-3.13909l12.12616,0l0,3.13909z"></path><path stroke="null" id="svg_19" fill="var(--custom-accent-dark)" d="m119.62995,21.50657l0,3.02975a3.94532,3.94532 0 0 0 -0.99323,-0.15839q-1.17409,0 -1.89756,0.7909t-0.72244,2.14586l0,5.48728l-3.40988,0l0,-11.29541l3.40988,0l0,1.58079a3.63775,3.63775 0 0 1 1.17409,-1.2865a2.8121,2.8121 0 0 1 1.5583,-0.45165a2.02222,2.02222 0 0 1 0.88083,0.15736z"></path><path stroke="null" id="svg_20" fill="var(--custom-accent-dark)" d="m131.80618,21.50657l0,11.29132l-3.38842,0l0,-1.15161q-1.24153,1.37846 -3.3874,1.37744a5.19503,5.19503 0 0 1 -2.77736,-0.77864a5.65384,5.65384 0 0 1 -2.00996,-2.13462a6.2465,6.2465 0 0 1 0,-5.91645a5.65077,5.65077 0 0 1 2.00996,-2.1336a5.19605,5.19605 0 0 1 2.77736,-0.77966q2.14586,0 3.3874,1.37846l0,-1.15263l3.38842,0zm-4.05364,7.64438a2.71911,2.71911 0 0 0 0.82462,-1.99872a2.83458,2.83458 0 1 0 -5.66814,0a2.81414,2.81414 0 0 0 2.82232,2.82334a2.74773,2.74773 0 0 0 2.0212,-0.82462z"></path><path stroke="null" id="svg_21" fill="var(--custom-accent-dark)" d="m145.69399,14.73178l0,18.06611l-3.40988,0l0,-1.1087q-1.21803,1.3335 -3.34141,1.32839a5.19605,5.19605 0 0 1 -2.77838,-0.77864a5.65384,5.65384 0 0 1 -2.00996,-2.13462a6.2465,6.2465 0 0 1 0,-5.91645a5.65077,5.65077 0 0 1 2.00996,-2.1336a5.19707,5.19707 0 0 1 2.77838,-0.77966q2.12134,0 3.34141,1.32839l0,-7.87123l3.40988,0zm-4.03013,14.41917a2.72218,2.72218 0 0 0 0.8236,-1.99872a2.8121,2.8121 0 0 0 -2.8448,-2.8448a2.72218,2.72218 0 0 0 -1.99872,0.8236a2.74977,2.74977 0 0 0 -0.82462,2.0212a2.81517,2.81517 0 0 0 2.82334,2.82334a2.74977,2.74977 0 0 0 2.0212,-0.82462z"></path><path stroke="null" id="svg_22" fill="var(--custom-accent-dark)" d="m159.06374,27.80621l-8.31062,0q0.15839,1.15263 0.89207,1.81785a2.54131,2.54131 0 0 0 1.77289,0.66624a3.00012,3.00012 0 0 0 1.52356,-0.38319a2.57401,2.57401 0 0 0 1.02797,-1.10665l2.75897,1.12402a4.89563,4.89563 0 0 1 -2.04368,2.25826a6.06972,6.06972 0 0 1 -3.15033,0.83484q-2.00894,0 -3.40988,-0.7674a5.1092,5.1092 0 0 1 -2.11521,-2.09375a6.26592,6.26592 0 0 1 -0.71529,-3.00421a5.99002,5.99002 0 0 1 0.75718,-2.99194a5.48523,5.48523 0 0 1 2.14586,-2.12236q1.38868,-0.78069 3.19529,-0.77966q1.67173,0 2.96333,0.71529a5.12963,5.12963 0 0 1 2.02222,2.0212q0.73266,1.31102 0.73368,3.04917l-0.04803,0.76229zm-8.10727,-2.2133l4.62893,0q-0.56406,-1.66969 -2.28074,-1.66969t-2.34819,1.67071l0,-0.00102z"></path></g></svg>